<svg width="50" height="50" viewBox="0 0 50 50" fill="none" xmlns="http://www.w3.org/2000/svg">
<path d="M33.3331 11.6667C33.3331 14.428 31.0944 16.6667 28.3331 16.6667C25.5718 16.6667 23.3331 14.428 23.3331 11.6667C23.3331 8.90533 25.5718 6.66667 28.3331 6.66667C31.0944 6.66667 33.3331 8.90533 33.3331 11.6667ZM23.3331 0.933333C23.3331 0.418 22.9151 0 22.3998 0C22.0734 0.0873333 21.7824 0.273667 21.5664 0.533333L13.3331 15.3C13.3134 15.4437 13.3134 15.5897 13.3331 15.7333C13.3331 16.2487 13.7511 16.6667 14.2664 16.6667C14.6048 16.5857 14.9084 16.399 15.1331 16.1333L23.3331 1.36667C23.3531 1.223 23.3531 1.077 23.3331 0.933333ZM42.9998 47.3333L33.3331 21.3C33.1751 20.5423 32.5071 19.9997 31.7331 20H15.0664C14.1461 20 13.3998 20.7463 13.3998 21.6667C13.3998 22.587 14.1461 23.3333 15.0664 23.3333H23.3331L28.1664 31.7L13.9331 47.0667C13.5528 47.3773 13.3324 47.8423 13.3331 48.3333C13.3331 49.2537 14.0794 50 14.9998 50C15.4078 49.998 15.8001 49.8433 16.0998 49.5667L30.9331 35.7333L40.1331 49.0667C40.4314 49.5973 40.9911 49.928 41.5998 49.9333C42.5318 49.934 43.2971 49.1977 43.3331 48.2667C43.3191 47.929 43.2031 47.6033 42.9998 47.3333Z" fill="black"/>
</svg>
