<svg width="172" height="86" viewBox="0 0 172 86" fill="none" xmlns="http://www.w3.org/2000/svg">
<path d="M16.32 78.68C15.82 78.98 14.99 79.33 13.83 79.73C12.69 80.11 11.35 80.3 9.81 80.3C8.07 80.3 6.61 79.94 5.43 79.22C4.27 78.5 3.39 77.51 2.79 76.25C2.19 74.99 1.89 73.55 1.89 71.93V67.64C1.89 65.98 2.19 64.53 2.79 63.29C3.39 62.03 4.28 61.05 5.46 60.35C6.66 59.65 8.16 59.3 9.96 59.3C10.84 59.3 11.75 59.4 12.69 59.6C13.63 59.78 14.66 60.12 15.78 60.62L14.67 63.77C13.69 63.39 12.84 63.12 12.12 62.96C11.42 62.78 10.72 62.69 10.02 62.69C8.46 62.69 7.33 63.14 6.63 64.04C5.93 64.92 5.58 66.12 5.58 67.64V71.93C5.58 73.37 5.93 74.55 6.63 75.47C7.35 76.39 8.47 76.85 9.99 76.85C10.45 76.85 10.95 76.81 11.49 76.73C12.03 76.65 12.55 76.54 13.05 76.4V71.93H9.75V68.78H16.32V78.68ZM31.9662 80.15C30.9462 80.15 30.1262 79.94 29.5062 79.52C28.9062 79.1 28.4662 78.58 28.1862 77.96C27.3262 78.76 26.4962 79.35 25.6962 79.73C24.8962 80.11 24.0362 80.3 23.1162 80.3C21.7762 80.3 20.7862 79.87 20.1462 79.01C19.5262 78.15 19.2162 77.06 19.2162 75.74C19.2162 74.86 19.3762 74.09 19.6962 73.43C20.0362 72.75 20.5862 72.22 21.3462 71.84C22.1062 71.46 23.1462 71.27 24.4662 71.27C24.9862 71.27 25.5262 71.31 26.0862 71.39C26.6462 71.45 27.2062 71.53 27.7662 71.63V69.86C27.7662 69.02 27.5362 68.45 27.0762 68.15C26.6162 67.83 25.9962 67.67 25.2162 67.67C24.6162 67.67 23.9562 67.75 23.2362 67.91C22.5362 68.07 21.7762 68.32 20.9562 68.66L19.9662 65.72C21.9862 64.9 23.8162 64.49 25.4562 64.49C26.9362 64.49 28.0762 64.74 28.8762 65.24C29.6962 65.74 30.2662 66.4 30.5862 67.22C30.9062 68.04 31.0662 68.92 31.0662 69.86V75.71C31.0662 76.01 31.1462 76.3 31.3062 76.58C31.4862 76.84 31.8262 76.97 32.3262 76.97H32.6562V80.15H31.9662ZM22.5462 75.68C22.5462 76.22 22.6662 76.65 22.9062 76.97C23.1462 77.27 23.4962 77.42 23.9562 77.42C24.4162 77.42 24.9362 77.3 25.5162 77.06C26.0962 76.82 26.8462 76.26 27.7662 75.38V74.09C26.7262 73.91 25.7062 73.82 24.7062 73.82C23.9262 73.82 23.3662 73.98 23.0262 74.3C22.7062 74.62 22.5462 75.08 22.5462 75.68ZM39.1013 69.47V80H35.6513V64.79H38.9213V66.8C39.8613 65.98 40.7313 65.39 41.5313 65.03C42.3313 64.67 43.1513 64.49 43.9913 64.49C45.8513 64.49 47.1213 65.31 47.8013 66.95C48.8013 66.07 49.7313 65.44 50.5913 65.06C51.4513 64.68 52.3213 64.49 53.2013 64.49C54.6013 64.49 55.6713 64.96 56.4113 65.9C57.1513 66.82 57.5213 68.12 57.5213 69.8V80H54.0713V70.22C54.0713 68.54 53.4313 67.7 52.1513 67.7C51.6513 67.7 51.1013 67.82 50.5013 68.06C49.9013 68.3 49.1713 68.77 48.3113 69.47V80H44.8613V70.22C44.8613 68.54 44.2213 67.7 42.9413 67.7C42.4413 67.7 41.8913 67.82 41.2913 68.06C40.6913 68.3 39.9613 68.77 39.1013 69.47ZM73.627 79.13C72.587 79.55 71.607 79.85 70.687 80.03C69.767 80.21 68.897 80.3 68.077 80.3C65.817 80.3 64.107 79.66 62.947 78.38C61.787 77.1 61.207 75.4 61.207 73.28V71.48C61.207 70.06 61.467 68.83 61.987 67.79C62.507 66.75 63.247 65.94 64.207 65.36C65.167 64.78 66.297 64.49 67.597 64.49C68.657 64.49 69.647 64.71 70.567 65.15C71.507 65.57 72.267 66.24 72.847 67.16C73.447 68.06 73.747 69.22 73.747 70.64C73.747 71.06 73.717 71.51 73.657 71.99C73.597 72.45 73.497 72.94 73.357 73.46H64.537C64.577 74.7 64.887 75.63 65.467 76.25C66.047 76.87 66.977 77.18 68.257 77.18C68.937 77.18 69.637 77.1 70.357 76.94C71.097 76.78 71.857 76.54 72.637 76.22L73.627 79.13ZM67.597 67.4C66.677 67.4 65.957 67.7 65.437 68.3C64.937 68.88 64.647 69.72 64.567 70.82H70.327C70.347 70.72 70.357 70.63 70.357 70.55C70.357 70.45 70.357 70.36 70.357 70.28C70.357 69.32 70.087 68.6 69.547 68.12C69.007 67.64 68.357 67.4 67.597 67.4ZM91.6716 78.68C91.1716 78.98 90.3416 79.33 89.1816 79.73C88.0416 80.11 86.7016 80.3 85.1616 80.3C83.4216 80.3 81.9616 79.94 80.7816 79.22C79.6216 78.5 78.7416 77.51 78.1416 76.25C77.5416 74.99 77.2416 73.55 77.2416 71.93V67.64C77.2416 65.98 77.5416 64.53 78.1416 63.29C78.7416 62.03 79.6316 61.05 80.8116 60.35C82.0116 59.65 83.5116 59.3 85.3116 59.3C86.1916 59.3 87.1016 59.4 88.0416 59.6C88.9816 59.78 90.0116 60.12 91.1316 60.62L90.0216 63.77C89.0416 63.39 88.1916 63.12 87.4716 62.96C86.7716 62.78 86.0716 62.69 85.3716 62.69C83.8116 62.69 82.6816 63.14 81.9816 64.04C81.2816 64.92 80.9316 66.12 80.9316 67.64V71.93C80.9316 73.37 81.2816 74.55 81.9816 75.47C82.7016 76.39 83.8216 76.85 85.3416 76.85C85.8016 76.85 86.3016 76.81 86.8416 76.73C87.3816 76.65 87.9016 76.54 88.4016 76.4V71.93H85.1016V68.78H91.6716V78.68ZM107.348 79.13C106.308 79.55 105.328 79.85 104.408 80.03C103.488 80.21 102.618 80.3 101.798 80.3C99.5377 80.3 97.8277 79.66 96.6677 78.38C95.5077 77.1 94.9277 75.4 94.9277 73.28V71.48C94.9277 70.06 95.1877 68.83 95.7077 67.79C96.2277 66.75 96.9677 65.94 97.9277 65.36C98.8877 64.78 100.018 64.49 101.318 64.49C102.378 64.49 103.368 64.71 104.288 65.15C105.228 65.57 105.988 66.24 106.568 67.16C107.168 68.06 107.468 69.22 107.468 70.64C107.468 71.06 107.438 71.51 107.378 71.99C107.318 72.45 107.218 72.94 107.078 73.46H98.2577C98.2977 74.7 98.6077 75.63 99.1877 76.25C99.7677 76.87 100.698 77.18 101.978 77.18C102.658 77.18 103.358 77.1 104.078 76.94C104.818 76.78 105.578 76.54 106.358 76.22L107.348 79.13ZM101.318 67.4C100.398 67.4 99.6777 67.7 99.1577 68.3C98.6577 68.88 98.3677 69.72 98.2877 70.82H104.048C104.068 70.72 104.078 70.63 104.078 70.55C104.078 70.45 104.078 70.36 104.078 70.28C104.078 69.32 103.808 68.6 103.268 68.12C102.728 67.64 102.078 67.4 101.318 67.4ZM118.882 67.7C118.382 67.7 117.812 67.82 117.172 68.06C116.532 68.3 115.772 68.77 114.892 69.47V80H111.442V64.79H114.712V66.83C115.652 66.01 116.542 65.42 117.382 65.06C118.222 64.68 119.072 64.49 119.932 64.49C121.392 64.49 122.502 64.96 123.262 65.9C124.022 66.82 124.402 68.12 124.402 69.8V80H120.952V70.22C120.952 68.54 120.262 67.7 118.882 67.7ZM132.502 61.91H128.872V58.34H132.502V61.91ZM132.412 80H128.962V64.79H132.412V80ZM146.225 80V77.99C145.305 78.79 144.445 79.38 143.645 79.76C142.845 80.12 142.035 80.3 141.215 80.3C139.855 80.3 138.805 79.84 138.065 78.92C137.325 77.98 136.955 76.67 136.955 74.99V64.79H140.405V74.57C140.405 76.25 141.025 77.09 142.265 77.09C142.765 77.09 143.305 76.97 143.885 76.73C144.485 76.49 145.205 76.03 146.045 75.35V64.79H149.495V80H146.225ZM158.505 77.3C159.245 77.3 159.855 77.18 160.335 76.94C160.815 76.68 161.055 76.3 161.055 75.8C161.055 75.36 160.895 75.02 160.575 74.78C160.275 74.52 159.725 74.29 158.925 74.09L157.215 73.64C155.895 73.3 154.915 72.73 154.275 71.93C153.655 71.13 153.345 70.18 153.345 69.08C153.345 67.78 153.795 66.69 154.695 65.81C155.595 64.93 156.985 64.49 158.865 64.49C159.625 64.49 160.425 64.58 161.265 64.76C162.105 64.94 162.985 65.23 163.905 65.63L162.915 68.57C162.075 68.17 161.315 67.89 160.635 67.73C159.955 67.57 159.355 67.49 158.835 67.49C157.415 67.49 156.705 67.97 156.705 68.93C156.705 69.31 156.825 69.61 157.065 69.83C157.325 70.05 157.795 70.25 158.475 70.43L160.185 70.88C161.645 71.26 162.705 71.84 163.365 72.62C164.045 73.4 164.385 74.38 164.385 75.56C164.385 76.96 163.905 78.1 162.945 78.98C162.005 79.86 160.515 80.3 158.475 80.3C156.735 80.3 154.905 79.9 152.985 79.1L153.915 76.25C154.855 76.63 155.705 76.9 156.465 77.06C157.225 77.22 157.905 77.3 158.505 77.3Z" fill="white"/>
<ellipse cx="61.6664" cy="34.6661" rx="8.66642" ry="8.66643" fill="#FFC300"/>
<ellipse cx="79.002" cy="21.6665" rx="10.833" ry="10.833" fill="white"/>
<ellipse cx="103.917" cy="14.0829" rx="14.0829" ry="14.0829" fill="#FFC300"/>
</svg>
