<svg width="205" height="102" viewBox="0 0 205 102" fill="none" xmlns="http://www.w3.org/2000/svg">
<path d="M19.04 95.46C18.4567 95.81 17.4883 96.2183 16.135 96.685C14.805 97.1283 13.2417 97.35 11.445 97.35C9.415 97.35 7.71167 96.93 6.335 96.09C4.98167 95.25 3.955 94.095 3.255 92.625C2.555 91.155 2.205 89.475 2.205 87.585V82.58C2.205 80.6433 2.555 78.9517 3.255 77.505C3.955 76.035 4.99333 74.8917 6.37 74.075C7.77 73.2583 9.52 72.85 11.62 72.85C12.6467 72.85 13.7083 72.9667 14.805 73.2C15.9017 73.41 17.1033 73.8067 18.41 74.39L17.115 78.065C15.9717 77.6217 14.98 77.3067 14.14 77.12C13.3233 76.91 12.5067 76.805 11.69 76.805C9.87 76.805 8.55167 77.33 7.735 78.38C6.91833 79.4067 6.51 80.8067 6.51 82.58V87.585C6.51 89.265 6.91833 90.6417 7.735 91.715C8.575 92.7883 9.88167 93.325 11.655 93.325C12.1917 93.325 12.775 93.2783 13.405 93.185C14.035 93.0917 14.6417 92.9633 15.225 92.8V87.585H11.375V83.91H19.04V95.46ZM37.2939 97.175C36.1039 97.175 35.1472 96.93 34.4239 96.44C33.7239 95.95 33.2105 95.3433 32.8839 94.62C31.8805 95.5533 30.9122 96.2417 29.9789 96.685C29.0455 97.1283 28.0422 97.35 26.9689 97.35C25.4055 97.35 24.2505 96.8483 23.5039 95.845C22.7805 94.8417 22.4189 93.57 22.4189 92.03C22.4189 91.0033 22.6055 90.105 22.9789 89.335C23.3755 88.5417 24.0172 87.9233 24.9039 87.48C25.7905 87.0367 27.0039 86.815 28.5439 86.815C29.1505 86.815 29.7805 86.8617 30.4339 86.955C31.0872 87.025 31.7405 87.1183 32.3939 87.235V85.17C32.3939 84.19 32.1255 83.525 31.5889 83.175C31.0522 82.8017 30.3289 82.615 29.4189 82.615C28.7189 82.615 27.9489 82.7083 27.1089 82.895C26.2922 83.0817 25.4055 83.3733 24.4489 83.77L23.2939 80.34C25.6505 79.3833 27.7855 78.905 29.6989 78.905C31.4255 78.905 32.7555 79.1967 33.6889 79.78C34.6455 80.3633 35.3105 81.1333 35.6839 82.09C36.0572 83.0467 36.2439 84.0733 36.2439 85.17V91.995C36.2439 92.345 36.3372 92.6833 36.5239 93.01C36.7339 93.3133 37.1305 93.465 37.7139 93.465H38.0989V97.175H37.2939ZM26.3039 91.96C26.3039 92.59 26.4439 93.0917 26.7239 93.465C27.0039 93.815 27.4122 93.99 27.9489 93.99C28.4855 93.99 29.0922 93.85 29.7689 93.57C30.4455 93.29 31.3205 92.6367 32.3939 91.61V90.105C31.1805 89.895 29.9905 89.79 28.8239 89.79C27.9139 89.79 27.2605 89.9767 26.8639 90.35C26.4905 90.7233 26.3039 91.26 26.3039 91.96ZM45.6181 84.715V97H41.5931V79.255H45.4081V81.6C46.5048 80.6433 47.5198 79.955 48.4531 79.535C49.3865 79.115 50.3431 78.905 51.3231 78.905C53.4931 78.905 54.9748 79.8617 55.7681 81.775C56.9348 80.7483 58.0198 80.0133 59.0231 79.57C60.0265 79.1267 61.0415 78.905 62.0681 78.905C63.7015 78.905 64.9498 79.4533 65.8131 80.55C66.6765 81.6233 67.1081 83.14 67.1081 85.1V97H63.0831V85.59C63.0831 83.63 62.3365 82.65 60.8431 82.65C60.2598 82.65 59.6181 82.79 58.9181 83.07C58.2181 83.35 57.3665 83.8983 56.3631 84.715V97H52.3381V85.59C52.3381 83.63 51.5915 82.65 50.0981 82.65C49.5148 82.65 48.8731 82.79 48.1731 83.07C47.4731 83.35 46.6215 83.8983 45.6181 84.715ZM85.8982 95.985C84.6849 96.475 83.5415 96.825 82.4682 97.035C81.3949 97.245 80.3799 97.35 79.4232 97.35C76.7865 97.35 74.7915 96.6033 73.4382 95.11C72.0849 93.6167 71.4082 91.6333 71.4082 89.16V87.06C71.4082 85.4033 71.7115 83.9683 72.3182 82.755C72.9249 81.5417 73.7882 80.5967 74.9082 79.92C76.0282 79.2433 77.3465 78.905 78.8632 78.905C80.0999 78.905 81.2549 79.1617 82.3282 79.675C83.4249 80.165 84.3115 80.9467 84.9882 82.02C85.6882 83.07 86.0382 84.4233 86.0382 86.08C86.0382 86.57 86.0032 87.095 85.9332 87.655C85.8632 88.1917 85.7465 88.7633 85.5832 89.37H75.2932C75.3399 90.8167 75.7015 91.9017 76.3782 92.625C77.0549 93.3483 78.1399 93.71 79.6332 93.71C80.4265 93.71 81.2432 93.6167 82.0832 93.43C82.9465 93.2433 83.8332 92.9633 84.7432 92.59L85.8982 95.985ZM78.8632 82.3C77.7899 82.3 76.9499 82.65 76.3432 83.35C75.7599 84.0267 75.4215 85.0067 75.3282 86.29H82.0482C82.0715 86.1733 82.0832 86.0683 82.0832 85.975C82.0832 85.8583 82.0832 85.7533 82.0832 85.66C82.0832 84.54 81.7682 83.7 81.1382 83.14C80.5082 82.58 79.7499 82.3 78.8632 82.3ZM106.95 95.46C106.367 95.81 105.398 96.2183 104.045 96.685C102.715 97.1283 101.152 97.35 99.3552 97.35C97.3252 97.35 95.6218 96.93 94.2452 96.09C92.8918 95.25 91.8652 94.095 91.1652 92.625C90.4652 91.155 90.1152 89.475 90.1152 87.585V82.58C90.1152 80.6433 90.4652 78.9517 91.1652 77.505C91.8652 76.035 92.9035 74.8917 94.2802 74.075C95.6802 73.2583 97.4302 72.85 99.5302 72.85C100.557 72.85 101.618 72.9667 102.715 73.2C103.812 73.41 105.013 73.8067 106.32 74.39L105.025 78.065C103.882 77.6217 102.89 77.3067 102.05 77.12C101.233 76.91 100.417 76.805 99.6002 76.805C97.7802 76.805 96.4618 77.33 95.6452 78.38C94.8285 79.4067 94.4202 80.8067 94.4202 82.58V87.585C94.4202 89.265 94.8285 90.6417 95.6452 91.715C96.4852 92.7883 97.7918 93.325 99.5652 93.325C100.102 93.325 100.685 93.2783 101.315 93.185C101.945 93.0917 102.552 92.9633 103.135 92.8V87.585H99.2852V83.91H106.95V95.46ZM125.239 95.985C124.026 96.475 122.882 96.825 121.809 97.035C120.736 97.245 119.721 97.35 118.764 97.35C116.127 97.35 114.132 96.6033 112.779 95.11C111.426 93.6167 110.749 91.6333 110.749 89.16V87.06C110.749 85.4033 111.052 83.9683 111.659 82.755C112.266 81.5417 113.129 80.5967 114.249 79.92C115.369 79.2433 116.687 78.905 118.204 78.905C119.441 78.905 120.596 79.1617 121.669 79.675C122.766 80.165 123.652 80.9467 124.329 82.02C125.029 83.07 125.379 84.4233 125.379 86.08C125.379 86.57 125.344 87.095 125.274 87.655C125.204 88.1917 125.087 88.7633 124.924 89.37H114.634C114.681 90.8167 115.042 91.9017 115.719 92.625C116.396 93.3483 117.481 93.71 118.974 93.71C119.767 93.71 120.584 93.6167 121.424 93.43C122.287 93.2433 123.174 92.9633 124.084 92.59L125.239 95.985ZM118.204 82.3C117.131 82.3 116.291 82.65 115.684 83.35C115.101 84.0267 114.762 85.0067 114.669 86.29H121.389C121.412 86.1733 121.424 86.0683 121.424 85.975C121.424 85.8583 121.424 85.7533 121.424 85.66C121.424 84.54 121.109 83.7 120.479 83.14C119.849 82.58 119.091 82.3 118.204 82.3ZM138.696 82.65C138.113 82.65 137.448 82.79 136.701 83.07C135.954 83.35 135.068 83.8983 134.041 84.715V97H130.016V79.255H133.831V81.635C134.928 80.6783 135.966 79.99 136.946 79.57C137.926 79.1267 138.918 78.905 139.921 78.905C141.624 78.905 142.919 79.4533 143.806 80.55C144.693 81.6233 145.136 83.14 145.136 85.1V97H141.111V85.59C141.111 83.63 140.306 82.65 138.696 82.65ZM154.585 75.895H150.35V71.73H154.585V75.895ZM154.48 97H150.455V79.255H154.48V97ZM170.596 97V94.655C169.522 95.5883 168.519 96.2767 167.586 96.72C166.652 97.14 165.707 97.35 164.751 97.35C163.164 97.35 161.939 96.8133 161.076 95.74C160.212 94.6433 159.781 93.115 159.781 91.155V79.255H163.806V90.665C163.806 92.625 164.529 93.605 165.976 93.605C166.559 93.605 167.189 93.465 167.866 93.185C168.566 92.905 169.406 92.3683 170.386 91.575V79.255H174.411V97H170.596ZM184.923 93.85C185.786 93.85 186.498 93.71 187.058 93.43C187.618 93.1267 187.898 92.6833 187.898 92.1C187.898 91.5867 187.711 91.19 187.338 90.91C186.988 90.6067 186.346 90.3383 185.413 90.105L183.418 89.58C181.878 89.1833 180.734 88.5183 179.988 87.585C179.264 86.6517 178.903 85.5433 178.903 84.26C178.903 82.7433 179.428 81.4717 180.478 80.445C181.528 79.4183 183.149 78.905 185.343 78.905C186.229 78.905 187.163 79.01 188.143 79.22C189.123 79.43 190.149 79.7683 191.223 80.235L190.068 83.665C189.088 83.1983 188.201 82.8717 187.408 82.685C186.614 82.4983 185.914 82.405 185.308 82.405C183.651 82.405 182.823 82.965 182.823 84.085C182.823 84.5283 182.963 84.8783 183.243 85.135C183.546 85.3917 184.094 85.625 184.888 85.835L186.883 86.36C188.586 86.8033 189.823 87.48 190.593 88.39C191.386 89.3 191.783 90.4433 191.783 91.82C191.783 93.4533 191.223 94.7833 190.103 95.81C189.006 96.8367 187.268 97.35 184.888 97.35C182.858 97.35 180.723 96.8833 178.483 95.95L179.568 92.625C180.664 93.0683 181.656 93.3833 182.543 93.57C183.429 93.7567 184.223 93.85 184.923 93.85Z" fill="white"/>
<ellipse cx="62.9325" cy="43.7306" rx="10.9325" ry="10.9325" fill="#FFC300"/>
<ellipse cx="116.235" cy="17.7653" rx="17.7653" ry="17.7653" fill="#FFC300"/>
<ellipse cx="84.8082" cy="27.3317" rx="13.6656" ry="13.6656" fill="white"/>
<path d="M86.4268 13.7651C84.3321 23.0418 80.7411 26.3335 71.7637 31.4207" stroke="#FF0000" stroke-width="2" stroke-dasharray="4 4"/>
<path d="M83.1357 40.995C85.2304 31.7184 88.8214 28.4267 97.7988 23.3395" stroke="#FF0000" stroke-width="2" stroke-dasharray="4 4"/>
</svg>
