<svg width="50" height="50" viewBox="0 0 50 50" fill="none" xmlns="http://www.w3.org/2000/svg">
<path d="M16.666 9.99999C14.825 9.99999 13.3327 8.50766 13.3327 6.66666C13.3327 4.82566 14.825 3.33333 16.666 3.33333C18.507 3.33333 19.9994 4.82566 19.9994 6.66666C19.9994 8.50766 18.507 9.99999 16.666 9.99999ZM41.666 33.3333H33.3327L29.9994 23.3333L26.666 17.5L29.9994 16.6667L37.666 20C38.5864 20.3683 39.631 19.9203 39.9994 19C40.3677 18.0797 39.9197 17.035 38.9994 16.6667L29.9994 13.3333H23.3327L16.666 16.6667L13.3327 20H8.33268C7.41235 20 6.66602 20.7463 6.66602 21.6667C6.66602 22.587 7.41235 23.3333 8.33268 23.3333H16.666L19.9994 20L23.3327 26.6666L16.666 33.3333V45C16.666 45.9203 17.4124 46.6666 18.3327 46.6666C19.253 46.6666 19.9994 45.9203 19.9994 45V34.6333L26.666 30L29.9994 36.6666H41.666C42.5864 36.6666 43.3327 35.9203 43.3327 35C43.3327 34.0796 42.5864 33.3333 41.666 33.3333Z" fill="black"/>
<path d="M2.36648 14.6261C3.62167 14.6261 4.6392 13.6086 4.6392 12.3534C4.6392 11.0982 3.62167 10.0807 2.36648 10.0807C1.11128 10.0807 0.09375 11.0982 0.09375 12.3534C0.09375 13.6086 1.11128 14.6261 2.36648 14.6261Z" fill="white"/>
</svg>
